<?xml version="1.0" encoding="iso-8859-1"?>
<!-- Uploaded to: SVG Repo, www.svgrepo.com, Generator: SVG Repo Mixer Tools -->
<svg height="800px" width="800px" version="1.1" id="Layer_1" xmlns="http://www.w3.org/2000/svg" xmlns:xlink="http://www.w3.org/1999/xlink" 
	 viewBox="0 0 512.001 512.001" xml:space="preserve">
<path style="fill:#A2CE86;" d="M511.24,273.354c-0.549-5.785-4.14-10.838-9.421-13.261c-26.557-12.186-55.949-17.353-85.006-14.931
	c-29.975,2.495-58.833,13.058-83.452,30.548c-24.62,17.49-44.094,41.261-56.317,68.746c-11.848,26.639-16.649,56.095-13.884,85.183
	c0.549,5.785,4.14,10.838,9.421,13.261c22.298,10.231,46.592,15.512,71.009,15.512c4.664,0,9.337-0.193,13.997-0.581
	c29.975-2.495,58.833-13.058,83.452-30.548c24.619-17.49,44.094-41.261,56.317-68.746
	C509.204,331.899,514.004,302.442,511.24,273.354z"/>
<circle style="fill:#91C0F1;" cx="262.434" cy="209.407" r="197.529"/>
<path style="fill:#D7EDF3;" d="M262.438,406.933c-109.091,0-197.528-88.436-197.528-197.528S153.347,11.878,262.438,11.878V406.933z
	"/>
<path style="fill:#A2CE86;" d="M175.116,278.118l2.903-3.214c9.908-10.966,9.718-27.708-0.436-38.446l-1.552-1.641
	c-6.653-7.035-9.252-16.981-6.888-26.37c3.099-12.313-2.377-25.184-13.397-31.491l-75.174-44.758
	C70.49,155.917,64.91,182.01,64.91,209.406c0,77.759,44.939,145.012,110.255,177.237l-6.951-84.761
	C166.749,293.321,169.294,284.562,175.116,278.118z"/>
<g>
	<path style="fill:#489B6D;" d="M401.95,69.576l-13.052,14.263c-5.682,6.208-13.61,9.886-22.02,10.212l-59.029,2.291
		c-10.463,0.406-20.041,5.985-25.556,14.884l-15.131,24.416c-6.841,11.04-6.206,25.147,1.599,35.528l9.397,12.497
		c7.133,9.486,10.962,21.048,10.901,32.916l-0.2,38.738c-0.105,20.402,18.247,35.948,38.354,32.488l43.031-7.405
		c11.826-2.035,22.645-7.93,30.767-16.764l0,0c14.449-15.716,35.976-20.941,55.125-15.39c2.505-12.561,3.828-25.549,3.828-38.846
		C459.966,154.779,437.789,105.334,401.95,69.576z"/>
	<path style="fill:#489B6D;" d="M273.577,359.433L273.577,359.433c-13.149,5.829-20.703,19.804-18.376,33.999l2.202,13.438
		c1.673,0.042,3.352,0.064,5.035,0.064c31.928,0,62.083-7.585,88.774-21.037l-3.365-5.013
		C331.581,356.651,300.258,347.605,273.577,359.433z"/>
</g>
<path style="fill:#A2CE86;" d="M177.169,90.053l40.067-22.55c6.302-3.546,10.869-9.525,12.634-16.538l9.497-37.739
	c-45.022,5.239-85.424,25.608-115.982,55.902l24.904,18.936C156.656,94.427,168.006,95.209,177.169,90.053z"/>
<path style="fill:#F5CA47;" d="M307.742,367.163c-19.465-33.261-47.502-62.559-81.082-84.727
	c-33.581-22.168-71.54-36.439-109.773-41.267c-37.455-4.731-74.337-0.377-106.665,12.592c-6.298,2.527-10.37,8.694-10.218,15.478
	c0.777,34.823,11.268,70.451,30.335,103.033c19.464,33.262,47.502,62.559,81.082,84.727s71.54,36.438,109.773,41.267
	c9.818,1.24,19.595,1.856,29.264,1.856c27.213,0,53.549-4.879,77.401-14.447c6.298-2.527,10.37-8.695,10.219-15.479
	C337.3,435.374,326.81,399.745,307.742,367.163z"/>
<path style="fill:#F7F4A3;" d="M262.441,310.685c-11.012-10.333-22.994-19.808-35.781-28.249
	c-33.581-22.168-71.54-36.439-109.773-41.267c-37.455-4.731-74.337-0.377-106.665,12.592c-6.298,2.527-10.37,8.694-10.218,15.478
	c0.777,34.823,11.268,70.451,30.335,103.033c19.464,33.262,47.502,62.559,81.082,84.727s71.54,36.438,109.773,41.267
	c9.818,1.24,19.595,1.856,29.264,1.856c4.009,0,7.998-0.106,11.963-0.317L262.441,310.685z"/>
<path style="fill:#E56C1E;" d="M478.112,465.912c-1.38-8.888-9.707-14.97-18.592-13.595c-84.503,13.116-170.359-5.57-241.762-52.624
	l-27.157-17.895c-7.51-4.949-17.612-2.873-22.561,4.637c-4.95,7.51-2.873,17.611,4.637,22.561l27.157,17.895
	c61.869,40.771,133.645,62.089,206.758,62.089c19.266,0,38.632-1.481,57.925-4.477C473.405,483.124,479.492,474.8,478.112,465.912z"
	/>
<path style="fill:#F2BA57;" d="M262.4,424.584c-15.378-7.133-30.301-15.439-44.641-24.89l-27.157-17.895
	c-7.51-4.949-17.612-2.873-22.561,4.637c-4.95,7.51-2.873,17.611,4.637,22.561l27.157,17.895
	c19.921,13.128,40.869,24.239,62.559,33.27L262.4,424.584z"/>
</svg>